PathFileType	3	(X/Y/Z)	walking_2__fused_aligned.trc
DataRate	CameraRate	NumFrames	NumMarkers	Units	OrigDataRate	OrigDataStartFrame	OrigNumFrames
100.0	100.0	17	19	mm	100.0	3368	6270
Frame#	Time	pelvis			neck			head			hip_left			hip_right			knee_left			knee_right			ankle_left			ankle_right			heel_left			heel_right			toe_left			toe_right			shoulder_left			shoulder_right			elbow_left			elbow_right			wrist_left			wrist_right			
		X1	Y1	Z1	X2	Y2	Z2	X3	Y3	Z3	X4	Y4	Z4	X5	Y5	Z5	X6	Y6	Z6	X7	Y7	Z7	X8	Y8	Z8	X9	Y9	Z9	X10	Y10	Z10	X11	Y11	Z11	X12	Y12	Z12	X13	Y13	Z13	X14	Y14	Z14	X15	Y15	Z15	X16	Y16	Z16	X17	Y17	Z17	X18	Y18	Z18	X19	Y19	Z19	
3368	33.67000	37.816754	931.999979	223.187465	15.995677	1482.353579	309.900882	25.239010	1551.524062	467.570535	113.047240	934.758867	223.273080	-37.413755	929.241119	223.101762	117.149852	521.013616	379.741853	-88.373389	500.326405	255.965143	116.865215	100.563138	405.156299	-100.142467	215.999042	-49.175933	115.190238	45.225337	380.187707	-96.742891	201.975387	-104.452918	106.099061	76.712682	602.767653	-111.998004	64.278588	42.220637	194.268123	1442.467619	245.963588	-164.606430	1418.658647	289.764154	257.128703	1158.359476	170.966589	-216.768719	1128.534854	303.555180	311.532491	894.705090	176.750362	-183.343610	930.434200	468.573483
3369	33.68000	40.733517	931.706640	223.120143	18.558426	1482.232319	309.644710	27.155006	1551.573484	467.291864	115.946019	934.605456	223.188821	-34.479004	928.807846	223.051395	118.938185	519.868324	375.872273	-85.868953	501.567284	262.104084	117.189165	99.989671	398.732566	-97.614046	219.078380	-45.734777	115.261476	44.923477	373.517256	-94.103438	205.688714	-101.320089	107.085209	74.975868	595.657565	-109.705188	65.344561	43.953078	196.981057	1442.382152	246.895217	-161.580438	1418.753121	287.995849	260.951116	1158.529297	173.185018	-213.708935	1128.807879	299.135739	314.918658	895.031533	180.938005	-182.668942	928.731624	460.350106
3370	33.69000	43.650280	931.413301	223.052820	21.121175	1482.111059	309.388538	29.071002	1551.622906	467.013193	118.844798	934.452045	223.104562	-31.544253	928.374574	223.001028	120.726518	518.723031	372.002692	-83.364517	502.808162	268.243025	117.513114	99.416205	392.308834	-95.085624	222.157718	-42.293622	115.332715	44.621617	366.846806	-91.463985	209.402041	-98.187259	108.071356	73.239054	588.547478	-107.412371	66.410535	45.685518	199.693991	1442.296684	247.826846	-158.554447	1418.847594	286.227544	264.773530	1158.699119	175.403447	-210.649151	1129.080905	294.716298	318.304825	895.357977	185.125647	-181.994275	927.029048	452.126729
3371	33.70000	46.567042	931.119962	222.985498	23.683924	1481.989798	309.132366	30.986998	1551.672329	466.734522	121.743577	934.298634	223.020304	-28.609502	927.941302	222.950661	122.514851	517.577738	368.133112	-80.860080	504.049041	274.381965	117.837064	98.842738	385.885102	-92.557203	225.237057	-38.852467	115.403953	44.319757	360.176356	-88.824532	213.115368	-95.054430	109.057504	71.502240	581.437390	-105.119554	67.476508	47.417959	202.406925	1442.211216	248.758474	-155.528456	1418.942068	284.459239	268.595944	1158.868940	177.621875	-207.589367	1129.353930	290.296857	321.690992	895.684420	189.313290	-181.319607	925.326471	443.903352
3372	33.71000	49.483805	930.826623	222.918176	26.246673	1481.868538	308.876194	32.902994	1551.721751	466.455851	124.642356	934.145223	222.936045	-25.674751	927.508029	222.900294	124.303185	516.432446	364.263531	-78.355644	505.289920	280.520906	118.161013	98.269272	379.461370	-90.028782	228.316395	-35.411311	115.475192	44.017897	353.505905	-86.185079	216.828695	-91.921601	110.043652	69.765426	574.327303	-102.826738	68.542482	49.150400	205.119859	1442.125748	249.690103	-152.502465	1419.036541	282.690934	272.418358	1159.038761	179.840304	-204.529583	1129.626956	285.877416	325.077158	896.010864	193.500932	-180.644939	923.623895	435.679974
3373	33.72000	52.400568	930.533284	222.850853	28.809422	1481.747278	308.620021	34.818990	1551.771174	466.177181	127.541135	933.991812	222.851786	-22.740000	927.074757	222.849927	126.091518	515.287153	360.393951	-75.851207	506.530799	286.659846	118.484963	97.695806	373.037638	-87.500361	231.395734	-31.970156	115.546430	43.716037	346.835455	-83.545626	220.542022	-88.788772	111.029800	68.028612	567.217215	-100.533921	69.608456	50.882840	207.832793	1442.040281	250.621732	-149.476473	1419.131015	280.922630	276.240771	1159.208583	182.058733	-201.469799	1129.899982	281.457975	328.463325	896.337307	197.688575	-179.970272	921.921319	427.456597
3374	33.73000	54.409708	930.491238	222.216859	30.332045	1481.656240	307.910760	35.483090	1551.910138	465.334922	129.557768	934.030775	222.340083	-20.738330	926.951698	222.093643	127.145032	514.418066	354.740805	-74.490017	508.067433	292.754090	118.450249	97.219725	361.890162	-86.549263	232.531093	-21.114547	115.335760	43.534498	335.128091	-82.554130	221.448212	-77.490905	111.603088	65.930108	555.661277	-100.026173	71.826433	62.159402	209.574058	1441.961998	251.705916	-147.399737	1419.292438	278.328221	278.918347	1159.369517	185.275444	-199.008474	1130.343499	275.648318	329.915551	896.866751	203.447074	-179.885248	920.162233	416.687695
3375	33.74000	56.418848	930.449191	221.582865	31.854668	1481.565201	307.201499	36.147190	1552.049103	464.492664	131.574400	934.069737	221.828380	-18.736660	926.828640	221.337359	128.198545	513.548979	349.087660	-73.128826	509.604066	298.848333	118.415536	96.743645	350.742687	-85.598165	233.666452	-10.258938	115.125090	43.352960	323.420727	-81.562634	222.354402	-66.193038	112.176376	63.831603	544.105338	-99.518426	74.044410	73.435964	211.315323	1441.883716	252.790101	-145.323001	1419.453861	275.733812	281.595924	1159.530452	188.492156	-196.547149	1130.787016	269.838661	331.367778	897.396196	209.205574	-179.800224	918.403147	405.918792
3376	33.75000	58.427988	930.407144	220.948871	33.377291	1481.474163	306.492238	36.811289	1552.188068	463.650405	133.591032	934.108700	221.316677	-16.734989	926.705581	220.581075	129.252059	512.679893	343.434514	-71.767635	511.140699	304.942576	118.380822	96.267564	339.595211	-84.647067	234.801811	0.596671	114.914420	43.171421	311.713363	-80.571138	223.260592	-54.895172	112.749664	61.733099	532.549399	-99.010678	76.262388	84.712525	213.056588	1441.805434	253.874285	-143.246265	1419.615284	273.139404	284.273500	1159.691386	191.708867	-194.085823	1131.230534	264.029004	332.820004	897.925640	214.964073	-179.715200	916.644061	395.149889
3377	33.76000	60.437128	930.365098	220.314877	34.899914	1481.383124	305.782977	37.475389	1552.327033	462.808146	135.607664	934.147662	220.804974	-14.733319	926.582523	219.824791	130.305573	511.810806	337.781369	-70.406445	512.677332	311.036819	118.346108	95.791484	328.447735	-83.695969	235.937171	11.452280	114.703750	42.989882	300.005999	-79.579642	224.166782	-43.597305	113.322952	59.634594	520.993460	-98.502930	78.480365	95.989087	214.797853	1441.727151	254.958469	-141.169529	1419.776706	270.544995	286.951076	1159.852321	194.925578	-191.624498	1131.674051	258.219347	334.272230	898.455085	220.722573	-179.630176	914.884975	384.380986
3378	33.77000	62.446268	930.323051	219.680883	36.422537	1481.292086	305.073715	38.139489	1552.465997	461.965888	137.624296	934.186625	220.293271	-12.731649	926.459465	219.068507	131.359087	510.941719	332.128223	-69.045254	514.213966	317.131063	118.311395	95.315403	317.300260	-82.744870	237.072530	22.307889	114.493080	42.808343	288.298635	-78.588145	225.072972	-32.299439	113.896239	57.536090	509.437522	-97.995183	80.698343	107.265648	216.539118	1441.648869	256.042654	-139.092793	1419.938129	267.950586	289.628652	1160.013255	198.142289	-189.163172	1132.117568	252.409691	335.724456	898.984529	226.481072	-179.545152	913.125889	373.612084
3379	33.78000	64.455408	930.281005	219.046889	37.945160	1481.201048	304.364454	38.803589	1552.604962	461.123629	139.640928	934.225587	219.781568	-10.729978	926.336406	218.312223	132.412600	510.072632	326.475078	-67.684063	515.750599	323.225306	118.276681	94.839323	306.152784	-81.793772	238.207889	33.163498	114.282410	42.626805	276.591271	-77.596649	225.979161	-21.001572	114.469527	55.437585	497.881583	-97.487435	82.916320	118.542210	218.280383	1441.570587	257.126838	-137.016057	1420.099552	265.356178	292.306228	1160.174189	201.359000	-186.701847	1132.561086	246.600034	337.176682	899.513973	232.239571	-179.460128	911.366802	362.843181
3380	33.79000	66.464548	930.238958	218.412895	39.467783	1481.110009	303.655193	39.467689	1552.743927	460.281371	141.657560	934.264550	219.269865	-8.728308	926.213348	217.555939	133.466114	509.203545	320.821932	-66.322873	517.287232	329.319549	118.241967	94.363242	295.005309	-80.842674	239.343248	44.019107	114.071740	42.445266	264.883907	-76.605153	226.885351	-9.703705	115.042815	53.339081	486.325644	-96.979688	85.134298	129.818772	220.021648	1441.492304	258.211022	-134.939321	1420.260975	262.761769	294.983805	1160.335124	204.575711	-184.240521	1133.004603	240.790377	338.628908	900.043418	237.998071	-179.375104	909.607716	352.074278
3381	33.80000	68.473688	930.196911	217.778901	40.990407	1481.018971	302.945932	40.131789	1552.882891	459.439112	143.674193	934.303512	218.758162	-6.726638	926.090289	216.799655	134.519628	508.334458	315.168787	-64.961682	518.823865	335.413792	118.207254	93.887162	283.857833	-79.891576	240.478608	54.874716	113.861070	42.263727	253.176543	-75.613657	227.791541	1.594161	115.616103	51.240576	474.769705	-96.471940	87.352275	141.095333	221.762913	1441.414022	259.295207	-132.862585	1420.422398	260.167360	297.661381	1160.496058	207.792423	-181.779196	1133.448120	234.980720	340.081134	900.572862	243.756570	-179.290080	907.848630	341.305376
3382	33.81000	70.482828	930.154865	217.144907	42.513030	1480.927932	302.236670	40.795889	1553.021856	458.596854	145.690825	934.342475	218.246460	-4.724967	925.967231	216.043371	135.573142	507.465371	309.515641	-63.600491	520.360498	341.508036	118.172540	93.411081	272.710358	-78.940478	241.613967	65.730325	113.650400	42.082188	241.469178	-74.622161	228.697731	12.892028	116.189391	49.142072	463.213766	-95.964192	89.570253	152.371895	223.504178	1441.335740	260.379391	-130.785849	1420.583821	257.572952	300.338957	1160.656993	211.009134	-179.317871	1133.891638	229.171063	341.533361	901.102306	249.515070	-179.205056	906.089544	330.536473
3383	33.82000	72.491968	930.112818	216.510913	44.035653	1480.836894	301.527409	41.459988	1553.160821	457.754595	147.707457	934.381437	217.734757	-2.723297	925.844172	215.287087	136.626655	506.596285	303.862496	-62.239301	521.897132	347.602279	118.137827	92.935001	261.562882	-77.989379	242.749326	76.585934	113.439730	41.900650	229.761814	-73.630665	229.603921	24.189895	116.762679	47.043567	451.657828	-95.456445	91.788230	163.648456	225.245444	1441.257457	261.463576	-128.709113	1420.745244	254.978543	303.016533	1160.817927	214.225845	-176.856545	1134.335155	223.361406	342.985587	901.631751	255.273569	-179.120032	904.330458	319.767570
3384	33.83000	72.620812	930.021791	216.567759	43.306346	1480.785409	301.705117	39.736661	1553.275258	457.687219	147.843921	934.336475	217.987675	-2.602094	925.707087	215.147859	136.351239	505.732710	297.764579	-62.882604	523.311119	353.563338	117.698713	92.361235	250.836925	-79.501242	241.429319	91.117772	113.003764	41.468696	218.540963	-75.239312	227.404727	39.496360	116.534316	45.296019	441.204713	-97.212490	93.373479	180.330459	224.678913	1441.327954	263.636373	-128.721808	1420.742940	253.314009	303.397672	1160.992820	218.842039	-176.234739	1134.492078	218.861845	341.776649	902.422408	263.352863	-180.801979	902.109344	309.595453
